<?xml version="1.0" encoding="UTF-8"?>
<!DOCTYPE svg PUBLIC "-//W3C//DTD SVG 1.1//EN" "http://www.w3.org/Graphics/SVG/1.1/DTD/svg11.dtd">
<!-- Creator: CorelDRAW X6 -->
<svg xmlns="http://www.w3.org/2000/svg" xml:space="preserve" width="16.6667in" height="23.875in" version="1.1" style="shape-rendering:geometricPrecision; text-rendering:geometricPrecision; image-rendering:optimizeQuality; fill-rule:evenodd; clip-rule:evenodd"
viewBox="0 0 16667 23875"
 xmlns:xlink="http://www.w3.org/1999/xlink">
 <defs>
  <style type="text/css">
   <![CDATA[
    .str0 {stroke:#FF000C;stroke-width:13.8898;stroke-linecap:round;stroke-linejoin:round}
    .fil0 {fill:none;fill-rule:nonzero}
   ]]>
  </style>
   <clipPath id="id0" style="clip-rule:nonzero">
    <rect x="736" y="653" width="15444" height="23222"/>
   </clipPath>
 </defs>
 <g id="Layer_x0020_1">
  <metadata id="CorelCorpID_0Corel-Layer"/>
  <g style="clip-path:url(#id0)">
   <image transform="matrix(1111.93 0 0 1671.9 -9.26535E+006 -1.99344E+007)" x="8333" y="11924" width="14" height="14" xlink:href="p1bo2j871r6f71bo1apn364k5k4_Images\p1bo2j871r6f71bo1apn364k5k4_ImgID1.png"/>
  </g>
  <path class="fil0 str0" d="M3100 22064l-611 0 0 -411 611 0 0 411zm-56 -48l0 -319 -489 0 5 319 484 0z"/>
  <path class="fil0 str0" d="M3100 21634l-611 0 0 -411 611 0 0 411zm-56 -48l0 -319 -489 0 5 319 484 0z"/>
  <path class="fil0 str0" d="M3100 21189l-611 0 0 -411 611 0 0 411zm-56 -48l0 -319 -489 0 5 319 484 0z"/>
  <path class="fil0 str0" d="M3100 20731l-611 0 0 -411 611 0 0 411zm-56 -48l0 -319 -489 0 5 319 484 0z"/>
  <path class="fil0 str0" d="M3100 20287l-611 0 0 -411 611 0 0 411zm-56 -48l0 -319 -489 0 5 319 484 0z"/>
  <path class="fil0 str0" d="M3100 19856l-611 0 0 -411 611 0 0 411zm-56 -48l0 -319 -489 0 5 319 484 0z"/>
  <path class="fil0 str0" d="M3100 19412l-611 0 0 -411 611 0 0 411zm-56 -48l0 -319 -489 0 5 319 484 0z"/>
  <path class="fil0 str0" d="M3100 18967l-611 0 0 -411 611 0 0 411zm-56 -48l0 -319 -489 0 5 319 484 0z"/>
  <path class="fil0 str0" d="M3100 18523l-611 0 0 -411 611 0 0 411zm-56 -48l0 -319 -489 0 5 319 484 0z"/>
  <path class="fil0 str0" d="M6670 22064l-611 0 0 -411 611 0 0 411zm-56 -48l0 -319 -489 0 5 319 484 0z"/>
  <path class="fil0 str0" d="M6670 21634l-611 0 0 -411 611 0 0 411zm-56 -48l0 -319 -489 0 5 319 484 0z"/>
  <path class="fil0 str0" d="M6670 21189l-611 0 0 -411 611 0 0 411zm-56 -48l0 -319 -489 0 5 319 484 0z"/>
  <path class="fil0 str0" d="M6670 20731l-611 0 0 -411 611 0 0 411zm-56 -48l0 -319 -489 0 5 319 484 0z"/>
  <path class="fil0 str0" d="M6670 20287l-611 0 0 -411 611 0 0 411zm-56 -48l0 -319 -489 0 5 319 484 0z"/>
  <path class="fil0 str0" d="M6670 19856l-611 0 0 -411 611 0 0 411zm-56 -48l0 -319 -489 0 5 319 484 0z"/>
  <path class="fil0 str0" d="M6670 19412l-611 0 0 -411 611 0 0 411zm-56 -48l0 -319 -489 0 5 319 484 0z"/>
  <path class="fil0 str0" d="M6670 18967l-611 0 0 -411 611 0 0 411zm-56 -48l0 -319 -489 0 5 319 484 0z"/>
  <path class="fil0 str0" d="M6670 18523l-611 0 0 -411 611 0 0 411zm-56 -48l0 -319 -489 0 5 319 484 0z"/>
  <path class="fil0 str0" d="M10239 22078l-611 0 0 -411 611 0 0 411zm-56 -48l0 -319 -489 0 5 319 484 0z"/>
  <path class="fil0 str0" d="M10239 21648l-611 0 0 -411 611 0 0 411zm-56 -48l0 -319 -489 0 5 319 484 0z"/>
  <path class="fil0 str0" d="M10239 21203l-611 0 0 -411 611 0 0 411zm-56 -48l0 -319 -489 0 5 319 484 0z"/>
  <path class="fil0 str0" d="M10239 20745l-611 0 0 -411 611 0 0 411zm-56 -48l0 -319 -489 0 5 319 484 0z"/>
  <path class="fil0 str0" d="M10239 20300l-611 0 0 -411 611 0 0 411zm-56 -48l0 -319 -489 0 5 319 484 0z"/>
  <path class="fil0 str0" d="M10239 19870l-611 0 0 -411 611 0 0 411zm-56 -48l0 -319 -489 0 5 319 484 0z"/>
  <path class="fil0 str0" d="M10239 19425l-611 0 0 -411 611 0 0 411zm-56 -48l0 -319 -489 0 5 319 484 0z"/>
  <path class="fil0 str0" d="M10239 18981l-611 0 0 -411 611 0 0 411zm-56 -48l0 -319 -489 0 5 319 484 0z"/>
  <path class="fil0 str0" d="M10239 18537l-611 0 0 -411 611 0 0 411zm-56 -48l0 -319 -489 0 5 319 484 0z"/>
  <path class="fil0 str0" d="M13823 22078l-611 0 0 -411 611 0 0 411zm-56 -48l0 -319 -489 0 5 319 484 0z"/>
  <path class="fil0 str0" d="M13823 21648l-611 0 0 -411 611 0 0 411zm-56 -48l0 -319 -489 0 5 319 484 0z"/>
  <path class="fil0 str0" d="M13823 21203l-611 0 0 -411 611 0 0 411zm-56 -48l0 -319 -489 0 5 319 484 0z"/>
  <path class="fil0 str0" d="M13823 20745l-611 0 0 -411 611 0 0 411zm-56 -48l0 -319 -489 0 5 319 484 0z"/>
  <path class="fil0 str0" d="M13823 20300l-611 0 0 -411 611 0 0 411zm-56 -48l0 -319 -489 0 5 319 484 0z"/>
  <path class="fil0 str0" d="M13823 19870l-611 0 0 -411 611 0 0 411zm-56 -48l0 -319 -489 0 5 319 484 0z"/>
  <path class="fil0 str0" d="M13823 19425l-611 0 0 -411 611 0 0 411zm-56 -48l0 -319 -489 0 5 319 484 0z"/>
  <path class="fil0 str0" d="M13823 18981l-611 0 0 -411 611 0 0 411zm-56 -48l0 -319 -489 0 5 319 484 0z"/>
  <path class="fil0 str0" d="M13823 18537l-611 0 0 -411 611 0 0 411zm-56 -48l0 -319 -489 0 5 319 484 0z"/>
  <polygon class="fil0 str0" points="1340,9362 15138,9362 15138,9532 1174,9532 1174,9457 "/>
  <polygon class="fil0 str0" points="3578,11492 5569,11492 5569,15103 3581,15103 "/>
  <polygon class="fil0 str0" points="7137,11471 9138,11482 9138,15095 7143,15095 "/>
  <polygon class="fil0 str0" points="10703,11491 12712,11491 12712,15114 10712,15114 "/>
  <polygon class="fil0 str0" points="3707,11646 5482,11646 5482,12697 3707,12697 "/>
  <polygon class="fil0 str0" points="7249,11649 9015,11649 9015,12709 7257,12709 "/>
  <polygon class="fil0 str0" points="10809,11666 12563,11666 12563,12704 10810,12706 "/>
  <polygon class="fil0 str0" points="3713,12910 5499,12910 5499,14995 3725,14995 "/>
  <polygon class="fil0 str0" points="7258,12917 9030,12917 9030,14984 7278,14984 "/>
  <polygon class="fil0 str0" points="10803,12913 12584,12913 12584,15003 10813,15003 "/>
  <polygon class="fil0 str0" points="2345,12042 3118,12042 3118,14963 2348,14963 "/>
  <polygon class="fil0 str0" points="2438,12112 3047,12112 3047,14876 2425,14876 "/>
  <polygon class="fil0 str0" points="6006,12039 6691,12039 6691,14942 6038,14942 "/>
  <polygon class="fil0 str0" points="6097,12100 6619,12100 6619,14871 6116,14871 "/>
  <polygon class="fil0 str0" points="9582,12049 10253,12049 10259,14962 9599,14962 "/>
  <polygon class="fil0 str0" points="9666,12116 10187,12116 10187,14882 9665,14882 "/>
  <polygon class="fil0 str0" points="2333,6738 3078,6738 3071,9272 2337,9273 "/>
  <polygon class="fil0 str0" points="2417,6810 3005,6807 3016,9188 2413,9190 "/>
  <polygon class="fil0 str0" points="5986,6747 6693,6747 6693,9268 6005,9268 "/>
  <polygon class="fil0 str0" points="6076,6808 6618,6808 6618,9192 6080,9192 "/>
  <polygon class="fil0 str0" points="9592,6771 10263,6771 10263,9275 9593,9275 "/>
  <polygon class="fil0 str0" points="9688,6842 10196,6842 10196,9189 9681,9189 "/>
  <polygon class="fil0 str0" points="13176,6771 13927,6771 13927,9280 13182,9280 "/>
  <polygon class="fil0 str0" points="13257,6828 13871,6828 13871,9208 13260,9208 "/>
  <polygon class="fil0 str0" points="1156,10620 15079,10620 15124,10684 15124,10823 1220,10823 1162,10678 "/>
  <polygon class="fil0 str0" points="2936,10626 2944,10690 2979,10746 2982,10822 6105,10822 6105,10719 6129,10684 6136,10620 "/>
  <polygon class="fil0 str0" points="6538,10626 6546,10690 6581,10746 6584,10822 9707,10822 9707,10719 9731,10684 9738,10620 "/>
  <polygon class="fil0 str0" points="10129,10625 10137,10690 10172,10745 10176,10822 13299,10822 13299,10719 13323,10684 13329,10620 "/>
  <polygon class="fil0 str0" points="3311,5947 5768,5952 5775,9230 5577,9230 5577,9402 3578,9402 3578,9230 3320,9230 "/>
  <path class="fil0 str0" d="M10509 5971c5,-12 2466,2 2466,2l0 3282 -233 0 0 156 -2038 0 0 -134 -209 0c0,0 19,-3318 14,-3306z"/>
  <polygon class="fil0 str0" points="3550,6161 5546,6161 5546,9383 3555,9383 "/>
  <polyline class="fil0 str0" points="7150,6160 9144,6160 9144,9387 7160,9387 7160,6160 "/>
  <polygon class="fil0 str0" points="10711,6183 12739,6178 12739,9405 10716,9405 "/>
  <polygon class="fil0 str0" points="10819,6399 12569,6399 12569,7320 10821,7320 "/>
  <polygon class="fil0 str0" points="10828,7458 12569,7458 12569,9406 10821,9406 "/>
  <polygon class="fil0 str0" points="6912,5961 9373,5961 9373,9264 9168,9264 9168,9414 7161,9414 7161,9272 6921,9272 "/>
  <polygon class="fil0 str0" points="13173,12054 13941,12054 13941,14973 13171,14973 "/>
  <polygon class="fil0 str0" points="13249,12114 13874,12108 13874,14883 13246,14883 "/>
  <polyline class="fil0 str0" points="1221,16625 15117,16625 15117,16843 1226,16843 1226,16625 "/>
  <polygon class="fil0 str0" points="4298,10857 4807,10857 4744,10944 4713,11471 4423,11473 4348,10938 "/>
  <polygon class="fil0 str0" points="7894,10845 8383,10845 8341,10954 8286,11456 7985,11456 7937,10931 "/>
  <polygon class="fil0 str0" points="11494,10840 11968,10840 11925,10942 11845,11479 11575,11479 11527,10941 "/>
  <polygon class="fil0 str0" points="3285,11228 5834,11228 5834,15080 6870,15080 6870,11214 9398,11214 9398,15085 10434,15085 10434,11218 12997,11218 12997,15096 14136,15096 14136,10828 2175,10828 2175,15090 3307,15090 "/>
  <polygon class="fil0 str0" points="1216,15114 15087,15114 15087,15273 1222,15273 "/>
  <polyline class="fil0 str0" points="3688,6344 5453,6344 5453,7288 3694,7288 3694,6344 "/>
  <polygon class="fil0 str0" points="3705,7435 5455,7435 5455,9390 3710,9390 "/>
  <polygon class="fil0 str0" points="7265,6340 9025,6340 9025,7307 7273,7307 "/>
  <polygon class="fil0 str0" points="7274,7450 9018,7450 9018,9409 7264,9409 "/>
  <polygon class="fil0 str0" points="3772,7516 5393,7516 5393,9317 3781,9317 "/>
  <polygon class="fil0 str0" points="7343,7514 8956,7514 8956,9327 7344,9327 "/>
  <polyline class="fil0 str0" points="10884,7527 12516,7527 12516,9359 10885,9359 10885,7527 "/>
  <polygon class="fil0 str0" points="1306,3911 15019,3911 15019,23829 1343,23829 "/>
  <polygon class="fil0 str0" points="1309,3916 1316,4890 15021,4888 15031,3896 "/>
  <polygon class="fil0 str0" points="8005,3942 8319,3942 8319,3997 8275,4061 8275,4797 8318,4797 8318,4846 8274,4846 8274,4927 8251,4927 8251,4986 8158,5057 8069,4988 8069,4928 8048,4928 8048,4844 8022,4844 8022,4803 8061,4803 8061,4060 8010,3993 "/>
  <polygon class="fil0 str0" points="9200,3942 9513,3942 9513,3997 9469,4061 9469,4797 9513,4797 9513,4846 9468,4846 9468,4927 9445,4927 9445,4986 9352,5057 9263,4988 9263,4928 9242,4928 9242,4844 9216,4844 9216,4803 9255,4803 9255,4060 9204,3993 "/>
  <polygon class="fil0 str0" points="10450,3942 10763,3942 10763,3997 10719,4061 10719,4797 10763,4797 10763,4846 10718,4846 10718,4927 10695,4927 10695,4986 10602,5057 10513,4988 10513,4928 10492,4928 10492,4844 10467,4844 10467,4803 10505,4803 10505,4060 10454,3993 "/>
  <polygon class="fil0 str0" points="11672,3942 11985,3942 11985,3997 11941,4061 11941,4797 11985,4797 11985,4846 11941,4846 11941,4927 11917,4927 11917,4986 11824,5057 11736,4988 11736,4928 11714,4928 11714,4844 11689,4844 11689,4803 11727,4803 11727,4060 11677,3993 "/>
  <polygon class="fil0 str0" points="12853,3942 13166,3942 13166,3997 13122,4061 13122,4797 13166,4797 13166,4846 13121,4846 13121,4927 13098,4927 13098,4986 13005,5057 12916,4988 12916,4928 12895,4928 12895,4844 12869,4844 12869,4803 12908,4803 12908,4060 12857,3993 "/>
  <polygon class="fil0 str0" points="14103,3942 14416,3942 14416,3997 14372,4061 14372,4797 14416,4797 14416,4846 14371,4846 14371,4927 14348,4927 14348,4986 14255,5057 14166,4988 14166,4928 14145,4928 14145,4844 14119,4844 14119,4803 14158,4803 14158,4060 14107,3993 "/>
  <polygon class="fil0 str0" points="14741,3942 15055,3942 15055,3997 15011,4061 15011,4797 15054,4797 15054,4846 15010,4846 15010,4927 14987,4927 14987,4986 14894,5057 14805,4988 14805,4928 14784,4928 14784,4844 14758,4844 14758,4803 14797,4803 14797,4060 14746,3993 "/>
  <polygon class="fil0 str0" points="6783,3942 7096,3942 7096,3997 7052,4061 7052,4797 7096,4797 7096,4846 7052,4846 7052,4927 7028,4927 7028,4986 6935,5057 6847,4988 6847,4928 6826,4928 6826,4844 6800,4844 6800,4803 6838,4803 6838,4060 6788,3993 "/>
  <polygon class="fil0 str0" points="5547,3900 5860,3900 5860,3955 5816,4019 5816,4755 5860,4755 5860,4804 5816,4804 5816,4886 5792,4886 5792,4945 5699,5015 5611,4947 5611,4886 5589,4886 5589,4802 5564,4802 5564,4761 5602,4761 5602,4018 5552,3951 "/>
  <polygon class="fil0 str0" points="4325,3900 4638,3900 4638,3955 4594,4019 4594,4755 4638,4755 4638,4804 4593,4804 4593,4886 4570,4886 4570,4945 4477,5015 4388,4947 4388,4886 4367,4886 4367,4802 4341,4802 4341,4761 4380,4761 4380,4018 4329,3951 "/>
  <polygon class="fil0 str0" points="3116,3900 3430,3900 3430,3955 3386,4019 3386,4755 3429,4755 3429,4804 3385,4804 3385,4886 3362,4886 3362,4945 3269,5015 3180,4947 3180,4886 3159,4886 3159,4802 3133,4802 3133,4761 3172,4761 3172,4018 3121,3951 "/>
  <polygon class="fil0 str0" points="1866,3900 2180,3900 2180,3955 2136,4019 2136,4755 2179,4755 2179,4804 2135,4804 2135,4886 2112,4886 2112,4945 2019,5015 1930,4947 1930,4886 1909,4886 1909,4802 1883,4802 1883,4761 1922,4761 1922,4018 1871,3951 "/>
  <polygon class="fil0 str0" points="1255,3900 1569,3900 1569,3955 1525,4019 1525,4755 1568,4755 1568,4804 1524,4804 1524,4886 1501,4886 1501,4945 1408,5015 1319,4947 1319,4886 1298,4886 1298,4802 1272,4802 1272,4761 1311,4761 1311,4018 1260,3951 "/>
  <polygon class="fil0 str0" points="3186,17709 6030,17709 6030,22029 3173,22029 "/>
  <polygon class="fil0 str0" points="6732,17695 9618,17695 9618,23351 6746,23351 "/>
  <polygon class="fil0 str0" points="10299,17691 13177,17691 13195,22056 10338,22056 "/>
  <polygon class="fil0 str0" points="1349,21194 2153,21192 2153,21612 1354,21612 "/>
  <polygon class="fil0 str0" points="1349,20749 2153,20748 2153,21167 1354,21167 "/>
  <polygon class="fil0 str0" points="1349,20319 2153,20317 2153,20737 1354,20737 "/>
  <polygon class="fil0 str0" points="1349,19874 2153,19873 2153,20292 1354,20292 "/>
  <polygon class="fil0 str0" points="1349,19430 2153,19428 2153,19848 1354,19848 "/>
  <polygon class="fil0 str0" points="1349,18985 2153,18984 2153,19403 1354,19403 "/>
  <polygon class="fil0 str0" points="1349,18541 2153,18539 2153,18959 1354,18959 "/>
  <polygon class="fil0 str0" points="1349,18110 2153,18109 2153,18528 1354,18528 "/>
  <polygon class="fil0 str0" points="1349,17666 2153,17664 2153,18084 1354,18084 "/>
  <polygon class="fil0 str0" points="14154,21222 14958,21220 14959,21639 14159,21639 "/>
  <polygon class="fil0 str0" points="14154,21666 14958,21664 14959,22084 14159,22084 "/>
  <polygon class="fil0 str0" points="14154,20777 14958,20775 14959,21195 14159,21195 "/>
  <polygon class="fil0 str0" points="14154,20347 14958,20345 14959,20764 14159,20764 "/>
  <polygon class="fil0 str0" points="14154,19902 14958,19900 14959,20320 14159,20320 "/>
  <polygon class="fil0 str0" points="14154,19458 14958,19456 14959,19875 14159,19875 "/>
  <polygon class="fil0 str0" points="14154,19013 14958,19011 14959,19431 14159,19431 "/>
  <polygon class="fil0 str0" points="14154,18569 14958,18567 14959,18987 14159,18987 "/>
  <polygon class="fil0 str0" points="14154,18138 14958,18136 14959,18556 14159,18556 "/>
  <polygon class="fil0 str0" points="14154,17694 14958,17692 14959,18112 14159,18112 "/>
  <polygon class="fil0 str0" points="1367,14638 2149,14636 2150,15094 1372,15094 "/>
  <polygon class="fil0 str0" points="1367,14166 2149,14164 2150,14621 1372,14621 "/>
  <polygon class="fil0 str0" points="1367,13694 2149,13692 2150,14149 1372,14149 "/>
  <polygon class="fil0 str0" points="1367,13222 2149,13220 2150,13677 1372,13677 "/>
  <polygon class="fil0 str0" points="1367,12777 2149,12775 2150,13233 1372,13233 "/>
  <polygon class="fil0 str0" points="1367,12305 2149,12303 2150,12760 1372,12760 "/>
  <polygon class="fil0 str0" points="1367,11847 2149,11845 2150,12302 1372,12302 "/>
  <polygon class="fil0 str0" points="1367,11388 2149,11386 2150,11844 1372,11844 "/>
  <polygon class="fil0 str0" points="1367,10916 2149,10914 2150,11371 1372,11371 "/>
  <polygon class="fil0 str0" points="14131,14638 14913,14636 14914,15094 14136,15094 "/>
  <polygon class="fil0 str0" points="14131,14166 14913,14164 14914,14621 14136,14621 "/>
  <polygon class="fil0 str0" points="14131,13694 14913,13692 14914,14149 14136,14149 "/>
  <polygon class="fil0 str0" points="14131,13222 14913,13220 14914,13677 14136,13677 "/>
  <polygon class="fil0 str0" points="14131,12777 14913,12775 14914,13233 14136,13233 "/>
  <polygon class="fil0 str0" points="14131,12305 14913,12303 14914,12760 14136,12760 "/>
  <polygon class="fil0 str0" points="14131,11847 14913,11845 14914,12302 14136,12302 "/>
  <polygon class="fil0 str0" points="14131,11388 14913,11386 14914,11844 14136,11844 "/>
  <polygon class="fil0 str0" points="14131,10916 14913,10914 14914,11371 14136,11371 "/>
  <polygon class="fil0 str0" points="1348,8904 2149,8902 2150,9348 1353,9348 "/>
  <polygon class="fil0 str0" points="1348,8410 2149,8408 2150,8875 1353,8875 "/>
  <polygon class="fil0 str0" points="1348,7907 2149,7905 2150,8376 1353,8376 "/>
  <polygon class="fil0 str0" points="1348,7400 2149,7398 2150,7882 1353,7882 "/>
  <polygon class="fil0 str0" points="1340,5746 2141,5744 2142,6228 1345,6228 "/>
  <polygon class="fil0 str0" points="1348,6900 2149,6898 2150,7382 1353,7382 "/>
  <polygon class="fil0 str0" points="14139,8918 14941,8916 14942,9362 14144,9362 "/>
  <polygon class="fil0 str0" points="14139,8424 14941,8422 14942,8889 14144,8889 "/>
  <polygon class="fil0 str0" points="14139,7921 14941,7919 14942,8390 14144,8390 "/>
  <polygon class="fil0 str0" points="14139,7414 14941,7412 14942,7896 14144,7896 "/>
  <polygon class="fil0 str0" points="14139,6914 14941,6912 14942,7396 14144,7396 "/>
  <polygon class="fil0 str0" points="1340,5246 2141,5244 2142,5728 1345,5728 "/>
 </g>
</svg>
